<?xml version="1.0" encoding="utf-8"?>
<!-- Generator: Adobe Illustrator 22.0.1, SVG Export Plug-In . SVG Version: 6.00 Build 0)  -->
<svg version="1.1" id="Layer_1" xmlns="http://www.w3.org/2000/svg" xmlns:xlink="http://www.w3.org/1999/xlink" x="0px" y="0px"
	 viewBox="0 0 57.8 52.5" style="enable-background:new 0 0 57.8 52.5;" xml:space="preserve">
<g>
	<path d="M28.9,52.5L4.6,27.4C1.5,24.2-0.2,19.7,0,15.2c0.2-4.6,2.2-8.7,5.7-11.7C11.8-1.7,21.3-1,27.1,5.1l1.8,1.8l1.8-1.8
		C36.6-1,46-1.7,52.1,3.5l0,0c3.4,2.9,5.5,7.1,5.7,11.7c0.2,4.5-1.4,9-4.6,12.2L28.9,52.5z M15.4,1.1c-3.2,0-6.4,1.1-8.9,3.2
		C3.2,7.1,1.3,11,1.1,15.2c-0.2,4.2,1.3,8.4,4.2,11.4l23.5,24.3l23.5-24.3c2.9-3,4.4-7.1,4.2-11.4c-0.2-4.3-2.1-8.1-5.3-10.9l0,0
		C45.7-0.5,37,0.2,31.5,5.8l-2.6,2.7l-2.6-2.7C23.3,2.7,19.3,1.1,15.4,1.1z"/>
</g>
</svg>
