<?xml version="1.0" encoding="utf-8"?>
<!-- Generator: Adobe Illustrator 22.0.1, SVG Export Plug-In . SVG Version: 6.00 Build 0)  -->
<svg version="1.1" id="Layer_1" xmlns="http://www.w3.org/2000/svg" xmlns:xlink="http://www.w3.org/1999/xlink" x="0px" y="0px"
	 viewBox="0 0 353.1 117.6" style="enable-background:new 0 0 353.1 117.6;" xml:space="preserve">
<g>
	<g>
		<path d="M255.3,115.2C176.9,103.4,98.7,89.5,21,73.6c-7.6-1.6-23-4.1-17.5-15.6C7.6,49.4,20.6,48,28.9,46.4
			c19.4-3.8,39.3-4.4,59-3.1c38.9,2.7,76.6,13.2,113.9,23.9c19.7,5.7,39.6,12.3,59.9,15.7c15.1,2.6,31.3,2.4,43.7-7.6
			c0.7-0.5,0.4-1.6-0.3-2c-52.1-33.6-116.5-23.7-174.1-13.8c0.2,0.8,0.4,1.6,0.7,2.4c72-24.9,145.7-44.8,220.4-59.6
			c1.6-0.3,0.9-2.7-0.7-2.4c-74.7,14.8-148.4,34.7-220.4,59.6c-1.5,0.5-0.9,2.7,0.7,2.4c56.9-9.8,120.6-19.7,172.1,13.5
			c-0.1-0.7-0.2-1.3-0.3-2c-14.2,11.5-33.8,9-50.4,5.2C234,74.2,215,68.4,196,62.9C157.6,52,118.6,41.7,78.5,40.3
			c-19.3-0.7-38.8,0.8-57.6,5.3C14.2,47.1,6.4,49,2.3,55.1C-0.8,59.6-1,65.6,3,69.6c5,5.1,13.8,5.7,20.3,7c10.3,2.1,20.6,4.2,31,6.2
			c20.3,4,40.7,7.9,61.1,11.6c46.3,8.4,92.7,16.2,139.3,23.2C256.2,117.8,256.9,115.4,255.3,115.2L255.3,115.2z"/>
	</g>
</g>
</svg>
