<?xml version="1.0" encoding="utf-8"?>
<!-- Generator: Adobe Illustrator 22.0.1, SVG Export Plug-In . SVG Version: 6.00 Build 0)  -->
<svg version="1.1" id="Layer_1" xmlns="http://www.w3.org/2000/svg" xmlns:xlink="http://www.w3.org/1999/xlink" x="0px" y="0px"
	 viewBox="0 0 85.1 85.1" style="enable-background:new 0 0 85.1 85.1;" xml:space="preserve">
<style type="text/css">
	.st0{opacity:0;}
	.st1{fill:#231F20;}
	.st2{fill:#231F20;stroke:#231F20;stroke-width:0.5;stroke-miterlimit:10;}
	.st3{fill:#FFFFFF;}
	.st4{fill:#FCEE1F;stroke:#FCEE1F;stroke-width:0.5;stroke-miterlimit:10;}
</style>
<g>
	<g class="st0">
		<circle class="st1" cx="42.6" cy="42.6" r="42.6"/>
		<path class="st2" d="M36.1,69.7c-11.9-2.8-19.5-14.4-17.6-26.3L14,42.4c-2.5,14.4,6.6,28.4,21,31.9c14.4,3.4,28.9-5,33.1-19
			l-4.5-1.1C60,65.6,48,72.6,36.1,69.7z"/>
		<g>
			<g>
				<path class="st2" d="M19.2,38.4l12-14.2l0-0.1l-9.4-2.2l0.6-2.4l12.3,2.9l-0.6,2.5l-12,14.2L19.2,38.4z"/>
				<path class="st2" d="M39.9,43.6c-1.1-0.3-2.1-0.7-2.9-1.4c-0.8-0.7-1.4-1.4-1.7-2.3C34.9,38.9,34.8,38,35,37l2.7,0.6
					c-0.1,0.8,0.1,1.6,0.6,2.2c0.5,0.7,1.2,1.1,2.1,1.3c0.7,0.2,1.4,0.2,2,0c0.6-0.2,1.2-0.6,1.6-1.1c0.5-0.5,0.8-1.1,1-1.9
					c0.2-0.8,0.2-1.5,0-2.1c-0.2-0.7-0.5-1.2-1-1.7c-0.5-0.5-1.1-0.8-1.8-1c-0.6-0.1-1.2-0.2-1.8-0.1c-0.6,0.1-1.1,0.2-1.6,0.4
					l-2.5-1l3.3-9.1L49.9,26l-0.6,2.4l-7.9-1.9l-1.8,5.1l0.1,0c0.4-0.3,1-0.4,1.7-0.5c0.7-0.1,1.3-0.1,2,0.1
					c1.1,0.3,2.1,0.8,2.8,1.5c0.8,0.8,1.3,1.7,1.6,2.7c0.3,1.1,0.3,2.2,0,3.4c-0.3,1.2-0.8,2.2-1.6,3c-0.8,0.8-1.7,1.4-2.8,1.7
					C42.3,43.9,41.2,43.9,39.9,43.6z"/>
				<path class="st2" d="M51.2,46l17.3-15.6l2.2,0.5L53.4,46.5L51.2,46z M53.8,31.6l0.2-1c0.2-0.7,0.5-1.3,0.9-1.8
					c0.4-0.5,1-0.9,1.6-1.1c0.7-0.2,1.4-0.2,2.2,0c0.8,0.2,1.5,0.5,2,1c0.5,0.5,0.8,1.1,0.9,1.7c0.1,0.7,0.1,1.3,0,2l-0.2,1
					c-0.2,0.7-0.5,1.3-0.9,1.8c-0.4,0.5-1,0.9-1.6,1.1c-0.6,0.2-1.4,0.2-2.2,0c-0.8-0.2-1.5-0.5-2-1c-0.5-0.5-0.8-1.1-0.9-1.7
					C53.6,33,53.7,32.3,53.8,31.6z M56.2,31.2l-0.2,1c-0.1,0.5-0.1,1,0,1.5c0.1,0.5,0.5,0.8,1.1,0.9c0.6,0.1,1.1,0,1.4-0.3
					c0.3-0.4,0.6-0.8,0.7-1.3l0.2-1c0.1-0.5,0.1-1,0-1.5c-0.1-0.5-0.5-0.8-1.1-0.9c-0.6-0.1-1.1,0-1.4,0.3
					C56.5,30.2,56.3,30.6,56.2,31.2z M60.7,44.5l0.2-1c0.2-0.7,0.5-1.3,0.9-1.8c0.4-0.5,1-0.9,1.6-1.1c0.6-0.2,1.4-0.2,2.2,0
					c0.8,0.2,1.5,0.5,2,1c0.5,0.5,0.8,1.1,0.9,1.7c0.1,0.7,0.1,1.3,0,2l-0.2,1c-0.2,0.7-0.5,1.3-0.9,1.8c-0.4,0.5-1,0.9-1.6,1.1
					c-0.6,0.2-1.4,0.2-2.2,0c-0.8-0.2-1.5-0.5-1.9-1c-0.5-0.5-0.8-1.1-0.9-1.7C60.5,45.9,60.5,45.2,60.7,44.5z M63,44.1l-0.2,1
					c-0.1,0.5-0.1,1,0,1.5c0.1,0.5,0.5,0.8,1.1,0.9c0.6,0.1,1.1,0,1.4-0.3c0.3-0.4,0.6-0.8,0.7-1.3l0.2-1c0.1-0.5,0.1-1,0-1.5
					c-0.1-0.5-0.5-0.8-1.1-0.9c-0.6-0.1-1.1,0-1.4,0.3C63.4,43.1,63.1,43.5,63,44.1z"/>
			</g>
		</g>
	</g>
	<g>
		<g>
			<circle class="st3" cx="42.6" cy="42.6" r="42.6"/>
			<path class="st4" d="M36.1,69.7c-11.9-2.8-19.5-14.4-17.6-26.3L14,42.4c-2.5,14.4,6.6,28.4,21,31.9c14.4,3.4,28.9-5,33.1-19
				l-4.5-1.1C60,65.6,48,72.6,36.1,69.7z"/>
			<g>
				<g>
					<path class="st4" d="M19.2,38.4l12-14.2l0-0.1l-9.4-2.2l0.6-2.4l12.3,2.9l-0.6,2.5l-12,14.2L19.2,38.4z"/>
					<path class="st4" d="M39.9,43.6c-1.1-0.3-2.1-0.7-2.9-1.4c-0.8-0.7-1.4-1.4-1.7-2.3C34.9,38.9,34.8,38,35,37l2.7,0.6
						c-0.1,0.8,0.1,1.6,0.6,2.2c0.5,0.7,1.2,1.1,2.1,1.3c0.7,0.2,1.4,0.2,2,0c0.6-0.2,1.2-0.6,1.6-1.1c0.5-0.5,0.8-1.1,1-1.9
						c0.2-0.8,0.2-1.5,0-2.1c-0.2-0.7-0.5-1.2-1-1.7c-0.5-0.5-1.1-0.8-1.8-1c-0.6-0.1-1.2-0.2-1.8-0.1c-0.6,0.1-1.1,0.2-1.6,0.4
						l-2.5-1l3.3-9.1L49.9,26l-0.6,2.4l-7.9-1.9l-1.8,5.1l0.1,0c0.4-0.3,1-0.4,1.7-0.5c0.7-0.1,1.3-0.1,2,0.1
						c1.1,0.3,2.1,0.8,2.8,1.5c0.8,0.8,1.3,1.7,1.6,2.7c0.3,1.1,0.3,2.2,0,3.4c-0.3,1.2-0.8,2.2-1.6,3c-0.8,0.8-1.7,1.4-2.8,1.7
						C42.3,43.9,41.2,43.9,39.9,43.6z"/>
					<path class="st4" d="M51.2,46l17.3-15.6l2.2,0.5L53.4,46.5L51.2,46z M53.8,31.6l0.2-1c0.2-0.7,0.5-1.3,0.9-1.8
						c0.4-0.5,1-0.9,1.6-1.1c0.7-0.2,1.4-0.2,2.2,0c0.8,0.2,1.5,0.5,2,1c0.5,0.5,0.8,1.1,0.9,1.7c0.1,0.7,0.1,1.3,0,2l-0.2,1
						c-0.2,0.7-0.5,1.3-0.9,1.8c-0.4,0.5-1,0.9-1.6,1.1c-0.6,0.2-1.4,0.2-2.2,0c-0.8-0.2-1.5-0.5-2-1c-0.5-0.5-0.8-1.1-0.9-1.7
						C53.6,33,53.7,32.3,53.8,31.6z M56.2,31.2l-0.2,1c-0.1,0.5-0.1,1,0,1.5c0.1,0.5,0.5,0.8,1.1,0.9c0.6,0.1,1.1,0,1.4-0.3
						c0.3-0.4,0.6-0.8,0.7-1.3l0.2-1c0.1-0.5,0.1-1,0-1.5c-0.1-0.5-0.5-0.8-1.1-0.9c-0.6-0.1-1.1,0-1.4,0.3
						C56.5,30.2,56.3,30.6,56.2,31.2z M60.7,44.5l0.2-1c0.2-0.7,0.5-1.3,0.9-1.8c0.4-0.5,1-0.9,1.6-1.1c0.6-0.2,1.4-0.2,2.2,0
						c0.8,0.2,1.5,0.5,2,1c0.5,0.5,0.8,1.1,0.9,1.7c0.1,0.7,0.1,1.3,0,2l-0.2,1c-0.2,0.7-0.5,1.3-0.9,1.8c-0.4,0.5-1,0.9-1.6,1.1
						c-0.6,0.2-1.4,0.2-2.2,0c-0.8-0.2-1.5-0.5-1.9-1c-0.5-0.5-0.8-1.1-0.9-1.7C60.5,45.9,60.5,45.2,60.7,44.5z M63,44.1l-0.2,1
						c-0.1,0.5-0.1,1,0,1.5c0.1,0.5,0.5,0.8,1.1,0.9c0.6,0.1,1.1,0,1.4-0.3c0.3-0.4,0.6-0.8,0.7-1.3l0.2-1c0.1-0.5,0.1-1,0-1.5
						c-0.1-0.5-0.5-0.8-1.1-0.9c-0.6-0.1-1.1,0-1.4,0.3C63.4,43.1,63.1,43.5,63,44.1z"/>
				</g>
			</g>
		</g>
	</g>
</g>
</svg>
