<?xml version="1.0" encoding="utf-8"?>
<!-- Generator: Adobe Illustrator 22.0.1, SVG Export Plug-In . SVG Version: 6.00 Build 0)  -->
<svg version="1.1" id="Layer_1" xmlns="http://www.w3.org/2000/svg" xmlns:xlink="http://www.w3.org/1999/xlink" x="0px" y="0px"
	 viewBox="0 0 245.1 137.1" style="enable-background:new 0 0 245.1 137.1;" xml:space="preserve">
<g>
	<g>
		<path d="M0.9,2.4c75.6,17.2,150.1,39.2,223,65.7c0.1-0.8,0.2-1.6,0.3-2.5c-37.6-0.3-75.1-0.5-112.7-0.8
			c-18.3-0.1-36.5-0.4-54.8-0.4c-12,0-25.7,1-33.8,11c-0.6,0.7-0.4,1.8,0.6,2.1c44.4,12.1,90.6,9.4,136.2,8.6
			c23.3-0.4,46.7-0.3,69.9,2.7c2.7,0.3,5.5,0.5,8.2,1.2c3.1,0.8,3.1,0.4,2.8,4c-0.3,3.4,0,2.9-2.5,4.2c-4.9,2.5-10.1,4.7-15.1,6.8
			c-11.2,4.8-22.6,9-34.2,12.8c-25.1,8.1-50.9,13.6-77,16.7c-1.6,0.2-1.6,2.7,0,2.5c25.1-3,50-8.1,74.2-15.7
			c12-3.8,23.9-8.1,35.5-12.9c5.2-2.2,10.4-4.5,15.5-6.8c2.9-1.4,7.5-3.1,8.3-6.8c1.8-8.2-12.7-8.1-17.3-8.7
			c-12.9-1.6-26-2.3-39-2.5c-25.6-0.5-51.1,0.8-76.7,0.9c-29.5,0.1-59.2-1.6-87.8-9.4c0.2,0.7,0.4,1.4,0.6,2.1
			C34,65.8,50.7,67,64.1,67.1c17.8,0.1,35.6,0.2,53.4,0.4c35.6,0.2,71.2,0.5,106.8,0.7c1.5,0,1.6-2,0.3-2.5
			C151.6,39.2,77.2,17.3,1.6,0C0-0.3-0.7,2.1,0.9,2.4L0.9,2.4z"/>
	</g>
</g>
</svg>
