<?xml version="1.0" encoding="utf-8"?>
<!-- Generator: Adobe Illustrator 22.0.1, SVG Export Plug-In . SVG Version: 6.00 Build 0)  -->
<svg version="1.1" id="Layer_1" xmlns="http://www.w3.org/2000/svg" xmlns:xlink="http://www.w3.org/1999/xlink" x="0px" y="0px"
	 viewBox="0 0 184.7 79.8" style="enable-background:new 0 0 184.7 79.8;" xml:space="preserve">
<style type="text/css">
	.st0{fill:#FCEE1F;}
	.st1{clip-path:url(#SVGID_2_);}
	.st2{fill:#010101;}
</style>
<g>
	<ellipse transform="matrix(0.9925 -0.122 0.122 0.9925 -4.2315 11.5965)" class="st0" cx="92.6" cy="40.4" rx="92.6" ry="38.5"/>
	<g>
		<defs>
			
				<ellipse id="SVGID_1_" transform="matrix(0.9925 -0.122 0.122 0.9925 -4.1716 11.5288)" cx="92.1" cy="39.8" rx="92.6" ry="38.5"/>
		</defs>
		<clipPath id="SVGID_2_">
			<use xlink:href="#SVGID_1_"  style="overflow:visible;"/>
		</clipPath>
		<g class="st1">
			<g>
				<g>
					<path class="st2" d="M43.5,41.4c-2,0-3.7-0.4-5.2-1.1c-1.5-0.7-2.7-1.7-3.6-2.9c-0.9-1.2-1.3-2.6-1.4-4.2l4.5,0.1
						c0,0.9,0.3,1.6,0.8,2.3c0.5,0.6,1.2,1.1,2,1.5c0.8,0.4,1.8,0.5,2.8,0.6c1.1,0,2.2-0.2,3.1-0.5c0.9-0.4,1.6-0.9,2.1-1.6
						c0.5-0.7,0.8-1.5,0.8-2.5c0-1-0.2-1.8-0.7-2.6c-0.5-0.8-1.2-1.3-2.1-1.8c-0.9-0.4-2.1-0.7-3.4-0.7l-2.5,0l0.1-3.6l2.5,0
						c1.1,0,2-0.2,2.9-0.5c0.8-0.4,1.5-0.9,2-1.6c0.5-0.7,0.7-1.5,0.7-2.4c0-0.9-0.2-1.7-0.6-2.4c-0.4-0.7-1-1.2-1.7-1.6
						c-0.7-0.4-1.6-0.6-2.6-0.6c-0.9,0-1.8,0.1-2.7,0.5c-0.8,0.3-1.5,0.8-2,1.4c-0.5,0.6-0.8,1.4-0.9,2.3l-4.3-0.1
						c0.1-1.6,0.6-2.9,1.5-4.1c0.9-1.2,2.1-2.1,3.6-2.7c1.5-0.6,3.1-1,4.9-0.9c1.9,0,3.5,0.4,4.8,1.2c1.3,0.7,2.4,1.7,3.1,2.9
						c0.7,1.2,1.1,2.5,1,4c0,1.6-0.5,3-1.4,4.1c-0.9,1.1-2.2,1.9-3.7,2.2l0,0.2c1.9,0.3,3.4,1.1,4.5,2.4c1,1.3,1.6,2.8,1.5,4.6
						c0,1.6-0.5,3-1.4,4.3c-0.9,1.3-2.2,2.2-3.7,2.9S45.5,41.4,43.5,41.4z"/>
					<path class="st2" d="M62.6,41.3L58,41.2l10.9-29l5.1,0.1l10,29.3l-4.7-0.1l-7.9-24l-0.2,0L62.6,41.3z M63.6,29.9l15.1,0.2
						l-0.1,3.7l-15.1-0.2L63.6,29.9z"/>
					<path class="st2" d="M88.8,41.7l0.5-29.1l10.4,0.2c2.3,0,4.1,0.5,5.6,1.3c1.5,0.8,2.6,2,3.3,3.4c0.7,1.4,1.1,3,1,4.8
						c0,1.8-0.4,3.4-1.2,4.8c-0.8,1.4-1.9,2.5-3.4,3.3c-1.5,0.8-3.4,1.2-5.6,1.2l-7.1-0.1l0.1-3.7l6.7,0.1c1.4,0,2.6-0.2,3.5-0.7
						c0.9-0.5,1.6-1.2,2-2c0.4-0.9,0.7-1.8,0.7-2.9c0-1.1-0.2-2.1-0.6-2.9c-0.4-0.9-1-1.5-1.9-2c-0.9-0.5-2.1-0.8-3.5-0.8l-5.5-0.1
						l-0.4,25.4L88.8,41.7z"/>
					<path class="st2" d="M117.5,42.2l-4.7-0.1l10.9-29l5.1,0.1l10,29.3l-4.7-0.1l-7.9-24l-0.2,0L117.5,42.2z M118.4,30.8l15.1,0.2
						l-0.1,3.7l-15.1-0.2L118.4,30.8z"/>
					<path class="st2" d="M153.4,43.1c-2,0-3.7-0.4-5.2-1.1c-1.5-0.7-2.7-1.7-3.6-2.9c-0.9-1.2-1.3-2.6-1.4-4.2l4.5,0.1
						c0,0.9,0.3,1.6,0.8,2.3c0.5,0.6,1.2,1.1,2,1.5c0.8,0.4,1.8,0.5,2.8,0.6c1.1,0,2.2-0.2,3.1-0.5c0.9-0.4,1.6-0.9,2.1-1.6
						c0.5-0.7,0.8-1.5,0.8-2.5c0-1-0.2-1.8-0.7-2.6c-0.5-0.8-1.2-1.3-2.1-1.8c-0.9-0.4-2.1-0.7-3.4-0.7l-2.5,0l0.1-3.6l2.5,0
						c1.1,0,2-0.2,2.9-0.5c0.8-0.4,1.5-0.9,2-1.6s0.7-1.5,0.7-2.4c0-0.9-0.2-1.7-0.6-2.4c-0.4-0.7-1-1.2-1.7-1.6
						c-0.7-0.4-1.6-0.6-2.6-0.6c-0.9,0-1.8,0.1-2.7,0.5s-1.5,0.8-2,1.4c-0.5,0.6-0.8,1.4-0.9,2.3L144,21c0.1-1.6,0.6-3,1.5-4.1
						c0.9-1.2,2.1-2.1,3.6-2.7s3.1-1,4.9-0.9c1.9,0,3.5,0.4,4.8,1.2c1.3,0.7,2.4,1.7,3.1,2.9c0.7,1.2,1.1,2.5,1,4
						c0,1.6-0.5,3-1.4,4.1c-0.9,1.1-2.2,1.9-3.7,2.2l0,0.2c1.9,0.3,3.4,1.1,4.5,2.4c1,1.3,1.6,2.8,1.5,4.6c0,1.6-0.5,3-1.4,4.3
						c-0.9,1.3-2.2,2.2-3.7,2.9C157.1,42.8,155.3,43.1,153.4,43.1z"/>
				</g>
			</g>
		</g>
		<g class="st1">
			<g>
				<g>
					<path class="st2" d="M28.8,75.3c-2,0-3.7-0.4-5.2-1.1c-1.5-0.7-2.7-1.7-3.6-2.9c-0.9-1.2-1.3-2.6-1.4-4.2l4.5,0.1
						c0,0.9,0.3,1.6,0.8,2.3c0.5,0.6,1.2,1.1,2,1.5c0.8,0.4,1.8,0.5,2.8,0.6c1.1,0,2.2-0.2,3.1-0.5c0.9-0.4,1.6-0.9,2.1-1.6
						c0.5-0.7,0.8-1.5,0.8-2.5c0-1-0.2-1.8-0.7-2.6c-0.5-0.8-1.2-1.3-2.1-1.8c-0.9-0.4-2.1-0.7-3.4-0.7l-2.5,0l0.1-3.6l2.5,0
						c1.1,0,2-0.2,2.9-0.5c0.8-0.4,1.5-0.9,2-1.6c0.5-0.7,0.7-1.5,0.7-2.4c0-0.9-0.2-1.7-0.6-2.4c-0.4-0.7-1-1.2-1.7-1.6
						c-0.7-0.4-1.6-0.6-2.6-0.6c-0.9,0-1.8,0.1-2.7,0.5c-0.8,0.3-1.5,0.8-2,1.4c-0.5,0.6-0.8,1.4-0.9,2.3l-4.3-0.1
						c0.1-1.6,0.6-2.9,1.5-4.1c0.9-1.2,2.1-2.1,3.6-2.7c1.5-0.7,3.1-1,4.9-0.9c1.9,0,3.5,0.4,4.8,1.2c1.3,0.7,2.4,1.7,3.1,2.9
						s1.1,2.5,1,4c0,1.6-0.5,3-1.4,4.1c-0.9,1.1-2.2,1.9-3.7,2.2l0,0.2c1.9,0.3,3.4,1.1,4.5,2.4c1,1.3,1.6,2.8,1.5,4.6
						c0,1.6-0.5,3-1.4,4.3c-0.9,1.3-2.2,2.2-3.7,2.9C32.6,75,30.8,75.3,28.8,75.3z"/>
					<path class="st2" d="M56.6,46.2l-0.5,29.1l-4.4-0.1l0.4-24.7l-0.2,0l-7,4.4l0.1-4.2l7.3-4.6L56.6,46.2z"/>
					<path class="st2" d="M94.8,46.8l-0.1,3.8L81,50.4l-0.4,25.3l-4.4-0.1l0.5-29.1L94.8,46.8z"/>
					<path class="st2" d="M99.9,76l0.5-29.1l10.4,0.2c2.3,0,4.1,0.5,5.6,1.3c1.5,0.8,2.6,2,3.3,3.4c0.7,1.4,1.1,3,1,4.8
						c0,1.8-0.4,3.4-1.2,4.8c-0.8,1.4-1.9,2.5-3.4,3.3c-1.5,0.8-3.4,1.2-5.6,1.2l-7.1-0.1l0.1-3.7l6.7,0.1c1.4,0,2.6-0.2,3.5-0.7
						c0.9-0.5,1.6-1.2,2-2c0.4-0.9,0.7-1.8,0.7-2.9c0-1.1-0.2-2.1-0.6-2.9c-0.4-0.9-1.1-1.5-1.9-2c-0.9-0.5-2.1-0.8-3.5-0.8
						l-5.5-0.1l-0.4,25.4L99.9,76z"/>
					<path class="st2" d="M126.1,76.5l0.5-29.1l4.4,0.1l-0.2,12.7l14.5,0.2l0.2-12.7l4.4,0.1l-0.5,29.1l-4.4-0.1l0.2-12.7l-14.5-0.2
						l-0.2,12.7L126.1,76.5z"/>
				</g>
			</g>
		</g>
	</g>
</g>
</svg>
