<?xml version="1.0" encoding="utf-8"?>
<!-- Generator: Adobe Illustrator 22.0.1, SVG Export Plug-In . SVG Version: 6.00 Build 0)  -->
<svg version="1.1" id="Layer_1" xmlns="http://www.w3.org/2000/svg" xmlns:xlink="http://www.w3.org/1999/xlink" x="0px" y="0px"
	 viewBox="0 0 151.1 111" style="enable-background:new 0 0 151.1 111;" xml:space="preserve">
<style type="text/css">
	.st0{fill:#DC4227;}
	.st1{fill:#EE4A23;}
	.st2{clip-path:url(#SVGID_2_);}
	.st3{fill:#010101;}
	.st4{opacity:0;}
	.st5{fill:#231F20;}
	.st6{fill:#231F20;stroke:#231F20;stroke-width:0.5;stroke-miterlimit:10;}
	.st7{fill:#FFFFFF;}
	.st8{fill:#FCEE1F;stroke:#FCEE1F;stroke-width:0.5;stroke-miterlimit:10;}
</style>
<g>
	<g>
		<polygon class="st0" points="30.1,41 7.2,32.6 0.2,51.5 23.9,57.7 		"/>
		<polygon class="st1" points="128.5,85.3 23.9,57.7 0.2,51.5 0,52 15.4,80.7 15.4,80.7 122.4,108.9 		"/>
	</g>
	<g>
		<defs>
			<polygon id="SVGID_1_" points="146.1,89.8 17.9,56.5 12.3,80.5 140.6,113.7 			"/>
		</defs>
		<clipPath id="SVGID_2_">
			<use xlink:href="#SVGID_1_"  style="overflow:visible;"/>
		</clipPath>
		<g class="st2">
			<g>
				<path class="st3" d="M32.8,60.2c0.9,0.3,1.8,0.8,2.6,1.4c0.8,0.6,1.5,1.4,1.9,2.4s0.8,2.2,0.8,3.6c0,1.4-0.3,3.1-0.9,5.1
					c-0.6,1.8-1.3,3.4-2.1,4.7s-1.7,2.4-2.7,3.1c-1,0.8-2.1,1.3-3.2,1.5c-1.1,0.2-2.3,0.1-3.5-0.3c-1.3-0.4-2.3-1-3.1-1.8
					c-0.8-0.8-1.4-1.7-1.7-2.8c-0.3-1.1-0.4-2.2-0.2-3.4l3.1,1c-0.1,1,0.1,1.8,0.6,2.6c0.5,0.8,1.2,1.3,2.2,1.6
					c1.5,0.5,3,0.2,4.3-0.9s2.3-2.8,3.1-5.2l-0.2-0.1c-0.5,0.5-1.1,0.8-1.8,1.1s-1.4,0.4-2.1,0.4c-0.7,0-1.5-0.1-2.2-0.3
					c-1.2-0.4-2.2-1-3-1.9c-0.8-0.9-1.3-2-1.6-3.2c-0.3-1.2-0.2-2.5,0.3-3.9c0.4-1.3,1.1-2.5,2.1-3.4c1-0.9,2.1-1.5,3.4-1.8
					C30,59.6,31.4,59.7,32.8,60.2z M32,62.9c-0.8-0.3-1.6-0.3-2.4-0.1c-0.8,0.2-1.4,0.6-2,1.1c-0.6,0.6-1,1.2-1.3,2.1
					c-0.3,0.8-0.3,1.6-0.2,2.4c0.1,0.8,0.5,1.5,1,2c0.5,0.6,1.2,1,2,1.3c0.6,0.2,1.2,0.3,1.8,0.2c0.6-0.1,1.2-0.2,1.7-0.5
					s1-0.7,1.4-1.1c0.4-0.5,0.7-1,0.9-1.6c0.3-0.8,0.3-1.6,0.1-2.4c-0.2-0.8-0.5-1.5-1-2.1C33.5,63.5,32.8,63.1,32,62.9z"/>
				<path class="st3" d="M44.9,87.9c-1.5-0.5-2.7-1.1-3.7-2c-1-0.9-1.6-1.8-2-2.9c-0.4-1.1-0.3-2.2,0-3.3c0.3-0.9,0.7-1.7,1.3-2.3
					c0.6-0.6,1.3-1.1,2.1-1.4c0.8-0.3,1.6-0.4,2.5-0.3l0-0.1c-1-0.6-1.6-1.4-2-2.5c-0.4-1.1-0.3-2.2,0-3.3c0.3-1.1,0.9-1.9,1.8-2.6
					c0.8-0.7,1.9-1.1,3-1.2c1.2-0.2,2.4,0,3.7,0.4c1.3,0.4,2.3,1,3.2,1.8s1.4,1.7,1.8,2.8c0.3,1,0.3,2.1,0,3.2c-0.4,1.1-1,2-1.9,2.7
					c-0.9,0.7-1.9,1-3,0.9l0,0.1c0.7,0.4,1.4,0.9,1.8,1.6c0.5,0.7,0.8,1.5,0.9,2.4c0.1,0.9,0.1,1.8-0.2,2.6c-0.4,1.1-1,2-1.9,2.7
					c-0.9,0.7-2,1.1-3.3,1.3S46.3,88.3,44.9,87.9z M45.7,85.3c0.9,0.3,1.7,0.4,2.4,0.3c0.7-0.1,1.4-0.3,1.9-0.8
					c0.5-0.4,0.9-1,1.1-1.7c0.2-0.7,0.2-1.4,0-2.1c-0.2-0.7-0.6-1.3-1.1-1.8c-0.5-0.5-1.2-0.9-2-1.2c-0.8-0.3-1.6-0.3-2.4-0.2
					s-1.4,0.4-1.9,0.8c-0.5,0.4-0.9,1-1.2,1.8c-0.2,0.7-0.3,1.4-0.1,2c0.2,0.6,0.5,1.2,1.1,1.7C44.1,84.6,44.8,85,45.7,85.3z
					 M48.8,75.5c0.7,0.2,1.4,0.3,2,0.2c0.6-0.1,1.2-0.4,1.7-0.8c0.5-0.4,0.8-0.9,1-1.6c0.2-0.7,0.2-1.3,0.1-1.9
					c-0.1-0.6-0.4-1.1-0.9-1.5c-0.5-0.4-1-0.8-1.8-1c-0.7-0.2-1.4-0.3-2-0.2c-0.6,0.1-1.2,0.3-1.6,0.7c-0.5,0.4-0.8,0.9-1,1.6
					c-0.2,0.7-0.3,1.3-0.1,1.9c0.1,0.6,0.5,1.1,0.9,1.6S48.1,75.3,48.8,75.5z"/>
				<path class="st3" d="M84.8,77.1l-0.9,2.7l-9.9-3.2L68.1,95l-3.2-1l6.7-21L84.8,77.1z"/>
				<path class="st3" d="M82.1,99.4l6.7-21l7.5,2.4c1.6,0.5,2.9,1.2,3.8,2.2s1.4,2,1.6,3.2c0.2,1.2,0.1,2.4-0.3,3.7
					c-0.4,1.3-1.1,2.4-1.9,3.2c-0.9,0.9-1.9,1.4-3.2,1.7c-1.3,0.3-2.7,0.1-4.4-0.4l-5.2-1.6l0.9-2.7l4.9,1.5c1,0.3,1.9,0.4,2.7,0.3
					c0.8-0.2,1.4-0.5,1.9-1c0.5-0.5,0.9-1.2,1.1-2s0.3-1.5,0.2-2.3c-0.1-0.7-0.4-1.3-1-1.9c-0.5-0.6-1.3-1-2.4-1.3l-4-1.3l-5.8,18.3
					L82.1,99.4z"/>
				<path class="st3" d="M101,105.4l6.7-21l3.2,1l-2.9,9.1l10.5,3.3l2.9-9.1l3.2,1l-6.7,21l-3.2-1l2.9-9.2l-10.5-3.3l-2.9,9.2
					L101,105.4z"/>
			</g>
		</g>
	</g>
</g>
<g>
	<g class="st4">
		<circle class="st5" cx="108.6" cy="42.6" r="42.5"/>
		<path class="st6" d="M102.1,69.7c-11.9-2.8-19.5-14.4-17.6-26.3L80,42.4c-2.5,14.4,6.6,28.4,21,31.9c14.4,3.4,28.9-5,33.1-19
			l-4.5-1.1C126,65.6,114,72.5,102.1,69.7z"/>
		<g>
			<g>
				<path class="st6" d="M91.1,40c-0.8-0.2-1.6-0.6-2.3-1c-0.7-0.5-1.3-1.1-1.8-2c-0.5-0.8-0.8-1.9-0.9-3.1c-0.1-1.2,0-2.7,0.4-4.4
					c0.4-1.6,0.9-3,1.5-4.2c0.6-1.2,1.4-2.2,2.2-2.9s1.7-1.2,2.7-1.5c1-0.2,2-0.2,3.1,0c1.1,0.3,2,0.7,2.8,1.4s1.3,1.4,1.7,2.3
					c0.4,0.9,0.5,1.9,0.4,2.9L98,26.8c0-0.8-0.2-1.6-0.7-2.2c-0.4-0.6-1.1-1-2-1.3c-1.4-0.3-2.6,0-3.6,1s-1.8,2.6-2.3,4.7l0.1,0
					c0.4-0.5,1-0.8,1.5-1.1c0.6-0.3,1.2-0.4,1.8-0.5c0.6-0.1,1.3,0,1.9,0.1c1.1,0.3,2,0.8,2.7,1.5s1.3,1.6,1.6,2.7s0.3,2.2,0,3.4
					s-0.8,2.2-1.6,3c-0.8,0.8-1.7,1.4-2.8,1.8C93.6,40.3,92.4,40.4,91.1,40z M91.6,37.7c0.7,0.2,1.4,0.1,2-0.1
					c0.6-0.2,1.2-0.6,1.7-1.1c0.5-0.5,0.8-1.1,1-1.9c0.2-0.7,0.2-1.4,0-2.1c-0.2-0.7-0.5-1.2-1-1.7c-0.5-0.5-1.1-0.8-1.8-1
					c-0.5-0.1-1.1-0.1-1.6,0c-0.5,0.1-1,0.3-1.4,0.6c-0.4,0.3-0.8,0.6-1.1,1.1c-0.3,0.4-0.5,0.9-0.6,1.4c-0.2,0.7-0.2,1.4,0,2.1
					s0.5,1.3,1,1.8C90.3,37.2,90.9,37.5,91.6,37.7z"/>
				<path class="st6" d="M107.5,44c-1.3-0.3-2.4-0.8-3.3-1.5c-0.9-0.7-1.5-1.5-1.9-2.4s-0.4-1.9-0.2-2.9c0.2-0.8,0.5-1.5,1-2.1
					c0.5-0.6,1.1-1,1.7-1.3c0.7-0.3,1.4-0.4,2.1-0.4l0-0.1c-0.9-0.4-1.5-1.1-1.9-2c-0.4-0.9-0.4-1.9-0.2-2.9c0.2-1,0.7-1.7,1.4-2.4
					s1.5-1,2.5-1.3c1-0.2,2.1-0.2,3.2,0.1c1.1,0.3,2.1,0.7,2.9,1.4c0.8,0.6,1.4,1.4,1.7,2.3c0.3,0.9,0.4,1.8,0.2,2.7
					c-0.2,1-0.7,1.8-1.5,2.5c-0.7,0.6-1.6,1-2.6,1l0,0.1c0.7,0.3,1.2,0.7,1.7,1.3c0.5,0.6,0.8,1.2,1,2c0.2,0.7,0.2,1.5,0,2.3
					c-0.2,1-0.7,1.8-1.5,2.5s-1.7,1.1-2.8,1.3C110,44.3,108.8,44.3,107.5,44z M108.1,41.6c0.8,0.2,1.5,0.2,2.1,0.1
					c0.6-0.1,1.1-0.4,1.6-0.8c0.4-0.4,0.7-0.9,0.9-1.5c0.1-0.6,0.1-1.3-0.1-1.8c-0.2-0.6-0.6-1.1-1.1-1.5c-0.5-0.4-1.1-0.7-1.8-0.9
					c-0.7-0.2-1.4-0.2-2.1,0s-1.2,0.4-1.6,0.9c-0.4,0.4-0.7,1-0.9,1.6c-0.2,0.6-0.1,1.2,0.1,1.7s0.5,1,1.1,1.4
					C106.7,41.2,107.3,41.5,108.1,41.6z M110.1,33c0.6,0.1,1.2,0.2,1.7,0c0.5-0.1,1-0.4,1.4-0.8c0.4-0.4,0.6-0.9,0.8-1.5
					c0.1-0.6,0.1-1.1,0-1.6c-0.2-0.5-0.5-0.9-0.9-1.3c-0.4-0.4-0.9-0.6-1.6-0.8c-0.6-0.2-1.2-0.2-1.8,0c-0.5,0.1-1,0.4-1.4,0.7
					c-0.4,0.4-0.6,0.9-0.8,1.4c-0.1,0.6-0.1,1.1,0,1.7c0.2,0.5,0.5,0.9,0.9,1.3C109,32.6,109.5,32.8,110.1,33z"/>
				<path class="st6" d="M119,46.4l17.2-15.6l2.2,0.5l-17.2,15.6L119,46.4z M121.6,32.1l0.2-1c0.2-0.7,0.5-1.3,0.9-1.8
					c0.4-0.5,1-0.9,1.6-1.1c0.7-0.2,1.4-0.2,2.2,0c0.8,0.2,1.5,0.5,1.9,1c0.5,0.5,0.8,1.1,0.9,1.7c0.1,0.7,0.1,1.3,0,2l-0.2,1
					c-0.2,0.7-0.5,1.3-0.9,1.8c-0.4,0.5-1,0.9-1.6,1.1c-0.6,0.2-1.4,0.2-2.2,0c-0.8-0.2-1.5-0.5-2-1s-0.8-1.1-0.9-1.7
					C121.4,33.5,121.4,32.8,121.6,32.1z M124,31.6l-0.2,1c-0.1,0.5-0.1,1,0,1.5c0.1,0.5,0.5,0.8,1.1,0.9c0.6,0.1,1.1,0,1.4-0.3
					c0.3-0.4,0.6-0.8,0.7-1.3l0.2-1c0.1-0.5,0.1-1,0-1.5s-0.5-0.8-1.1-0.9c-0.6-0.1-1.1,0-1.4,0.3S124.1,31.1,124,31.6z M128.4,45
					l0.2-1c0.2-0.7,0.5-1.3,0.9-1.8c0.4-0.5,1-0.9,1.6-1.1c0.6-0.2,1.4-0.2,2.2,0c0.8,0.2,1.5,0.5,2,1c0.5,0.5,0.8,1.1,0.9,1.7
					c0.1,0.7,0.1,1.3,0,2l-0.2,1c-0.2,0.7-0.5,1.3-0.9,1.8c-0.4,0.5-1,0.9-1.6,1.1c-0.6,0.2-1.4,0.2-2.2,0c-0.8-0.2-1.5-0.5-1.9-1
					s-0.8-1.1-0.9-1.7C128.3,46.3,128.3,45.7,128.4,45z M130.8,44.5l-0.2,1c-0.1,0.5-0.1,1,0,1.5c0.1,0.5,0.5,0.8,1.1,0.9
					c0.6,0.1,1.1,0,1.4-0.3c0.3-0.4,0.6-0.8,0.7-1.3l0.2-1c0.1-0.5,0.1-1,0-1.5c-0.1-0.5-0.5-0.8-1.1-0.9c-0.6-0.1-1.1,0-1.4,0.3
					C131.1,43.5,130.9,44,130.8,44.5z"/>
			</g>
		</g>
	</g>
	<g>
		<g>
			<circle class="st7" cx="108.6" cy="42.6" r="42.5"/>
			<path class="st8" d="M102.1,69.7c-11.9-2.8-19.5-14.4-17.6-26.3L80,42.4c-2.5,14.4,6.6,28.4,21,31.9c14.4,3.4,28.9-5,33.1-19
				l-4.5-1.1C126,65.6,114,72.5,102.1,69.7z"/>
			<g>
				<g>
					<path class="st8" d="M91.1,40c-0.8-0.2-1.6-0.6-2.3-1c-0.7-0.5-1.3-1.1-1.8-2c-0.5-0.8-0.8-1.9-0.9-3.1c-0.1-1.2,0-2.7,0.4-4.4
						c0.4-1.6,0.9-3,1.5-4.2c0.6-1.2,1.4-2.2,2.2-2.9s1.7-1.2,2.7-1.5c1-0.2,2-0.2,3.1,0c1.1,0.3,2,0.7,2.8,1.4s1.3,1.4,1.7,2.3
						c0.4,0.9,0.5,1.9,0.4,2.9L98,26.8c0-0.8-0.2-1.6-0.7-2.2c-0.4-0.6-1.1-1-2-1.3c-1.4-0.3-2.6,0-3.6,1s-1.8,2.6-2.3,4.7l0.1,0
						c0.4-0.5,1-0.8,1.5-1.1c0.6-0.3,1.2-0.4,1.8-0.5c0.6-0.1,1.3,0,1.9,0.1c1.1,0.3,2,0.8,2.7,1.5s1.3,1.6,1.6,2.7s0.3,2.2,0,3.4
						s-0.8,2.2-1.6,3c-0.8,0.8-1.7,1.4-2.8,1.8C93.6,40.3,92.4,40.4,91.1,40z M91.6,37.7c0.7,0.2,1.4,0.1,2-0.1
						c0.6-0.2,1.2-0.6,1.7-1.1c0.5-0.5,0.8-1.1,1-1.9c0.2-0.7,0.2-1.4,0-2.1c-0.2-0.7-0.5-1.2-1-1.7c-0.5-0.5-1.1-0.8-1.8-1
						c-0.5-0.1-1.1-0.1-1.6,0c-0.5,0.1-1,0.3-1.4,0.6c-0.4,0.3-0.8,0.6-1.1,1.1c-0.3,0.4-0.5,0.9-0.6,1.4c-0.2,0.7-0.2,1.4,0,2.1
						s0.5,1.3,1,1.8C90.3,37.2,90.9,37.5,91.6,37.7z"/>
					<path class="st8" d="M107.5,44c-1.3-0.3-2.4-0.8-3.3-1.5c-0.9-0.7-1.5-1.5-1.9-2.4s-0.4-1.9-0.2-2.9c0.2-0.8,0.5-1.5,1-2.1
						c0.5-0.6,1.1-1,1.7-1.3c0.7-0.3,1.4-0.4,2.1-0.4l0-0.1c-0.9-0.4-1.5-1.1-1.9-2c-0.4-0.9-0.4-1.9-0.2-2.9c0.2-1,0.7-1.7,1.4-2.4
						s1.5-1,2.5-1.3c1-0.2,2.1-0.2,3.2,0.1c1.1,0.3,2.1,0.7,2.9,1.4c0.8,0.6,1.4,1.4,1.7,2.3c0.3,0.9,0.4,1.8,0.2,2.7
						c-0.2,1-0.7,1.8-1.5,2.5c-0.7,0.6-1.6,1-2.6,1l0,0.1c0.7,0.3,1.2,0.7,1.7,1.3c0.5,0.6,0.8,1.2,1,2c0.2,0.7,0.2,1.5,0,2.3
						c-0.2,1-0.7,1.8-1.5,2.5s-1.7,1.1-2.8,1.3C110,44.3,108.8,44.3,107.5,44z M108.1,41.6c0.8,0.2,1.5,0.2,2.1,0.1
						c0.6-0.1,1.1-0.4,1.6-0.8c0.4-0.4,0.7-0.9,0.9-1.5c0.1-0.6,0.1-1.3-0.1-1.8c-0.2-0.6-0.6-1.1-1.1-1.5c-0.5-0.4-1.1-0.7-1.8-0.9
						c-0.7-0.2-1.4-0.2-2.1,0s-1.2,0.4-1.6,0.9c-0.4,0.4-0.7,1-0.9,1.6c-0.2,0.6-0.1,1.2,0.1,1.7s0.5,1,1.1,1.4
						C106.7,41.2,107.3,41.5,108.1,41.6z M110.1,33c0.6,0.1,1.2,0.2,1.7,0c0.5-0.1,1-0.4,1.4-0.8c0.4-0.4,0.6-0.9,0.8-1.5
						c0.1-0.6,0.1-1.1,0-1.6c-0.2-0.5-0.5-0.9-0.9-1.3c-0.4-0.4-0.9-0.6-1.6-0.8c-0.6-0.2-1.2-0.2-1.8,0c-0.5,0.1-1,0.4-1.4,0.7
						c-0.4,0.4-0.6,0.9-0.8,1.4c-0.1,0.6-0.1,1.1,0,1.7c0.2,0.5,0.5,0.9,0.9,1.3C109,32.6,109.5,32.8,110.1,33z"/>
					<path class="st8" d="M119,46.4l17.2-15.6l2.2,0.5l-17.2,15.6L119,46.4z M121.6,32.1l0.2-1c0.2-0.7,0.5-1.3,0.9-1.8
						c0.4-0.5,1-0.9,1.6-1.1c0.7-0.2,1.4-0.2,2.2,0c0.8,0.2,1.5,0.5,1.9,1c0.5,0.5,0.8,1.1,0.9,1.7c0.1,0.7,0.1,1.3,0,2l-0.2,1
						c-0.2,0.7-0.5,1.3-0.9,1.8c-0.4,0.5-1,0.9-1.6,1.1c-0.6,0.2-1.4,0.2-2.2,0c-0.8-0.2-1.5-0.5-2-1s-0.8-1.1-0.9-1.7
						C121.4,33.5,121.4,32.8,121.6,32.1z M124,31.6l-0.2,1c-0.1,0.5-0.1,1,0,1.5c0.1,0.5,0.5,0.8,1.1,0.9c0.6,0.1,1.1,0,1.4-0.3
						c0.3-0.4,0.6-0.8,0.7-1.3l0.2-1c0.1-0.5,0.1-1,0-1.5s-0.5-0.8-1.1-0.9c-0.6-0.1-1.1,0-1.4,0.3S124.1,31.1,124,31.6z M128.4,45
						l0.2-1c0.2-0.7,0.5-1.3,0.9-1.8c0.4-0.5,1-0.9,1.6-1.1c0.6-0.2,1.4-0.2,2.2,0c0.8,0.2,1.5,0.5,2,1c0.5,0.5,0.8,1.1,0.9,1.7
						c0.1,0.7,0.1,1.3,0,2l-0.2,1c-0.2,0.7-0.5,1.3-0.9,1.8c-0.4,0.5-1,0.9-1.6,1.1c-0.6,0.2-1.4,0.2-2.2,0c-0.8-0.2-1.5-0.5-1.9-1
						s-0.8-1.1-0.9-1.7C128.3,46.3,128.3,45.7,128.4,45z M130.8,44.5l-0.2,1c-0.1,0.5-0.1,1,0,1.5c0.1,0.5,0.5,0.8,1.1,0.9
						c0.6,0.1,1.1,0,1.4-0.3c0.3-0.4,0.6-0.8,0.7-1.3l0.2-1c0.1-0.5,0.1-1,0-1.5c-0.1-0.5-0.5-0.8-1.1-0.9c-0.6-0.1-1.1,0-1.4,0.3
						C131.1,43.5,130.9,44,130.8,44.5z"/>
				</g>
			</g>
		</g>
	</g>
</g>
</svg>
