<?xml version="1.0" encoding="utf-8"?>
<!-- Generator: Adobe Illustrator 22.0.1, SVG Export Plug-In . SVG Version: 6.00 Build 0)  -->
<svg version="1.1" id="Layer_1" xmlns="http://www.w3.org/2000/svg" xmlns:xlink="http://www.w3.org/1999/xlink" x="0px" y="0px"
	 viewBox="0 0 149.7 149.7" style="enable-background:new 0 0 149.7 149.7;" xml:space="preserve">
<style type="text/css">
	.st0{fill:#E8E7E7;}
	.st1{fill:#121212;}
</style>
<g>
	<circle class="st0" cx="74.8" cy="74.8" r="74.8"/>
	<g>
		<g>
			<g>
				<g>
					<path class="st1" d="M90.1,32.2c0-2.7-0.7-3.9-3.7-3.8c-7.7,0.2-15.5,0.2-23.2,0c-2.8-0.1-3.8,0.8-3.8,3.7
						c0.1,14.5,0,29.1,0.1,43.6c0,4.7,1.7,9.5,5.8,11.5c7.1,3.3,7.7,8.8,7.2,15.3c-0.2,2.1-0.1,4.3,0,6.5c0.1,4.2-1.3,7.2-5.9,7.9
						c-1.5,0.2-2.8,0.8-2.6,2.6c0.2,1.8,1.7,1.9,3.2,1.9c4.9,0,9.9,0,14.8,0c1.4,0,3,0,3.3-1.8c0.4-2.1-1.3-2.5-2.9-2.8
						c-4.1-0.7-5.6-3.4-5.6-7.3c0-4.3,0.1-8.7,0-13c-0.1-3.5,1.2-5.9,4.4-7.4c6.2-3.1,8.7-8.4,8.7-15.1c0-6.6,0-13.3,0-19.9
						C90.1,46.7,90,39.5,90.1,32.2z M81.2,35.9c0.1-1.2,0.2-3,2.3-2.9c2.9,0.1,2.1,2.4,2.2,4.1c0.1,1.7-0.3,3.4-2.3,3.1
						C81.2,39.9,81.1,38,81.2,35.9z M66,33c2.7-0.1,2,2.1,2.2,3.5c0,1.8,0,3.7-2,3.7c-2.4,0-2.2-2.1-2.2-3.8
						C64.1,34.9,63.7,33,66,33z M72.6,86c-6.4-2.5-8.4-5.4-8.6-11.2c0-2-0.1-4,0-6c0.1-1.3-0.7-3.2,0.6-3.8c1.4-0.7,2.8,0.7,4,1.7
						c2.4,1.9,3.8,4.4,4,7.5c0.1,2.3,0,4.6,0.1,6.9C72.6,82.6,72.6,84.1,72.6,86z M71.7,63.6c-1.9,0.6-3.6-1.3-4.9-2.8
						c-4.4-5-2.4-11.1-2.5-16.8c0-1.9,2-0.7,2.8-0.2c5.4,3,6,8.1,5.6,12.7c0,1.3,0.1,1.8,0,2.2C72.2,60.4,73.7,62.9,71.7,63.6z
						 M74.6,44.6c-1.7-0.1-2.2-1.4-2.1-3c0.1-1.1,0-2.1,0-3.2c0,0,0,0,0,0c0-1.1-0.1-2.2,0-3.2c0.1-1.4,0.8-2.3,2.3-2.2
						c1.3,0.1,2,0.9,2,2.1c0.1,2.3,0.1,4.6,0.1,6.9C77.1,43.5,76.3,44.7,74.6,44.6z M77.5,85.6c-1.3-11.9-0.9-18.3,7.8-20.9
						C86.1,77,86.6,83,77.5,85.6z M85.5,48.9c0.7,6.2-0.1,10.8-4.9,13.9c-2.2,1.4-3.7,1.7-3.5-1.7c0.1-2.9,0-5.8,0.1-8.8
						c0-1,0.3-2.1,0.7-3.1c1.3-3.1,3.6-6.4,6.8-5.8C86.9,43.7,85.1,47.6,85.5,48.9z"/>
				</g>
			</g>
		</g>
	</g>
</g>
</svg>
