<?xml version="1.0" encoding="utf-8"?>
<!-- Generator: Adobe Illustrator 22.0.1, SVG Export Plug-In . SVG Version: 6.00 Build 0)  -->
<svg version="1.1" id="Layer_1" xmlns="http://www.w3.org/2000/svg" xmlns:xlink="http://www.w3.org/1999/xlink" x="0px" y="0px"
	 viewBox="0 0 204.4 327.3" style="enable-background:new 0 0 204.4 327.3;" xml:space="preserve">
<style type="text/css">
	.st0{fill:#D12027;}
</style>
<g>
	<g>
		<path class="st0" d="M0.4,188.3c17.9,45.1,35.9,90.2,53.8,135.3c1.5,3.9,6.8,5.2,9.1,1.2C110,247,149.2,164.6,180.1,79.2
			c8.7-24.1,16.7-48.5,24.1-73.1c1.9-6.2-7.8-8.8-9.6-2.7c-25.9,86.2-60.1,169.8-102.1,249.3c-12,22.7-24.6,45-37.8,67
			c3,0.4,6.1,0.8,9.1,1.2C45.9,275.9,27.9,230.8,10,185.7C7.7,179.8-2,182.3,0.4,188.3L0.4,188.3z"/>
	</g>
</g>
</svg>
