<?xml version="1.0" encoding="utf-8"?>
<!-- Generator: Adobe Illustrator 22.0.1, SVG Export Plug-In . SVG Version: 6.00 Build 0)  -->
<svg version="1.1" id="Layer_1" xmlns="http://www.w3.org/2000/svg" xmlns:xlink="http://www.w3.org/1999/xlink" x="0px" y="0px"
	 viewBox="0 0 30.1 52.7" style="enable-background:new 0 0 30.1 52.7;" xml:space="preserve">
<g>
	<g>
		<path d="M23.3,49.3c-12.5-9-35.9-39.1-10.7-47.1C19.3,0,25.7,1.2,27.7,8.6c1,3.8,0.9,8,0.8,12c-0.2,10.7-2,21.2-5.1,31.3
			c-0.2,0.8,1,1.1,1.2,0.3c3.9-12.8,6.7-27.8,4.7-41.2C28,0.6,20.3-2,10.9,1.4c-25,9.1-1,39.8,11.8,48.9
			C23.3,50.8,24,49.7,23.3,49.3L23.3,49.3z"/>
	</g>
</g>
<g>
	<g>
		<path d="M18.4,7.2c-3.5,0-7.2,1.7-8.6,5.1c-1.3,3.1-0.3,7.2,2.8,8.9c2.6,1.4,6.2,0.7,7.9-1.7c2.5-3.7,0-8-2.9-10.5
			c-0.6-0.5-1.5,0.3-0.9,0.9c2.3,2,4.3,5,3.1,8.1c-1.1,2.8-5,3.6-7.3,1.7c-2.1-1.7-2.6-5-1.3-7.4c1.4-2.6,4.3-3.8,7.2-3.7
			C19.2,8.4,19.2,7.2,18.4,7.2L18.4,7.2z"/>
	</g>
</g>
</svg>
