<?xml version="1.0" encoding="utf-8"?>
<!-- Generator: Adobe Illustrator 22.0.1, SVG Export Plug-In . SVG Version: 6.00 Build 0)  -->
<svg version="1.1" id="Layer_1" xmlns="http://www.w3.org/2000/svg" xmlns:xlink="http://www.w3.org/1999/xlink" x="0px" y="0px"
	 viewBox="0 0 222.3 117.4" style="enable-background:new 0 0 222.3 117.4;" xml:space="preserve">
<g>
	<g>
		<path d="M201.5,0.2c-31.8-0.8-63.7,1-95.3,5.4c-15.9,2.2-31.7,5.1-47.3,8.6c-13.2,3-28,5.3-39.9,12.1C8.3,32.2,3.5,42.8,1.7,54.5
			C0,65.8-0.8,78.2,1,89.6c1.7,10.5,6.7,20.3,16.8,24.8c11.4,5,24.9,2.7,36.7,0.7c35.1-6,68.3-19.9,101-33.7
			c0.8-0.3,1.3-1.4,0.6-2.1C114.4,43.1,57.1,35.8,4,34.7c0,0.8,0,1.7,0,2.5c73.1-1.1,145.9-9.3,217.4-24.5c1.6-0.3,0.9-2.7-0.7-2.4
			C149.5,25.5,76.8,33.6,4,34.7c-1.6,0-1.6,2.5,0,2.5c52.4,1.1,109.2,8.1,150.3,43.8c0.2-0.7,0.4-1.4,0.6-2.1
			c-26.2,11-52.5,22-80,29.1C52.7,113.8,13,124.9,4.6,94.3C1.7,83.9,2.5,72.5,3.4,61.9C4.5,48.2,8.1,35,20.9,28
			c11.3-6.2,25.3-8.4,37.7-11.2c14.4-3.3,28.9-6,43.5-8.1c32.9-4.8,66.1-6.8,99.4-6C203.1,2.7,203.1,0.2,201.5,0.2L201.5,0.2z"/>
	</g>
</g>
</svg>
