<?xml version="1.0" encoding="utf-8"?>
<!-- Generator: Adobe Illustrator 22.0.1, SVG Export Plug-In . SVG Version: 6.00 Build 0)  -->
<svg version="1.1" id="Layer_1" xmlns="http://www.w3.org/2000/svg" xmlns:xlink="http://www.w3.org/1999/xlink" x="0px" y="0px"
	 viewBox="0 0 341.7 87.2" style="enable-background:new 0 0 341.7 87.2;" xml:space="preserve">
<g>
	<g>
		<path d="M131.1,36.3c66.6,6.6,132.5,19.7,196.6,39c0.1-0.8,0.2-1.6,0.3-2.5c-84.5,9.3-169.5,11.3-254.4,11.6
			c-24.1,0.1-48.3,0-72.4,0c-1.6,0-1.6,2.5,0,2.5c88.3,1.2,176.7-2.3,264.6-10.5c24.9-2.3,49.8-5,74.7-8.1c0-0.8,0-1.7,0-2.5
			c-79.3,10.4-159.4,7.2-238.9,1C78.8,65,55.9,63,33.1,60.9c0.2,0.8,0.4,1.6,0.6,2.3c64-38,137.4-59.1,211.9-60.7
			c1.6,0,1.6-2.5,0-2.5C170.7,1.7,96.9,22.8,32.4,61.1c-1.1,0.7-0.6,2.2,0.6,2.3c79.5,7.2,159.3,14.3,239.2,10.8
			c22.8-1,45.6-2.9,68.3-5.9c1.6-0.2,1.6-2.7,0-2.5C252.9,76.7,164.7,82.9,76.3,84.4c-25,0.4-50.1,0.4-75.1,0.1c0,0.8,0,1.7,0,2.5
			c84.9,0.2,169.9,0.3,254.7-5.3C280,80.1,304,78,328,75.3c1.3-0.1,1.8-2,0.3-2.5C264,53.5,197.9,40.4,131.1,33.8
			C129.5,33.6,129.5,36.1,131.1,36.3L131.1,36.3z"/>
	</g>
</g>
</svg>
